<svg id="レイヤー_2" data-name="レイヤー 2" xmlns="http://www.w3.org/2000/svg" viewBox="0 0 428.26 148.08"><path d="M505.58,456.2H77.92l.29-148,427.29.64Zm.57-2.65q0-71.21,0-142.41v-3H80.58c-.79,0-1.58,0-2.37,0-.11,0-.2.36-.29.56,1.37,0,2.75.08,4.13.08H505.5v3.83q0,65.16,0,130.32c0,4.42.05,8.84.07,13.26A12.7,12.7,0,0,0,506.15,453.55Zm-88.93-26.48c-.41,1.84-.3,3.79,2.38,3.82,4.14.05,8.3.23,12.42-.1a5.46,5.46,0,0,0,3.78-2.56,53.25,53.25,0,0,0,2.93-8.41c.75-2.49.58-6.12,2.2-7.25,1.88-1.31,5.29-.44,8-.51a2.58,2.58,0,0,1,.63.2c-.3,1.22-.56,2.45-.9,3.66-.93,3.33-2,6.64-2.81,10-.89,3.56.27,5,3.89,5,2.86,0,5.74-.23,8.57,0,5.33.52,6.61-2.34,7.59-5.9,5.84-21.46,11.51-43,17.34-64.43.87-3.2,1.59-6.9,5.91-7.33,2.15-.21,2.65-1.34,2.7-3.47H465.35c4.94-3.87,9.45-7.19,13.71-10.8s8.78-6.65,10.83-12.22a6.85,6.85,0,0,1,6.87-4.5c2.18,0,2.84-1.32,2.14-3.47a12,12,0,0,0-1.39-.17q-39,0-78.08,0c-1.79,0-2.31.82-2.68,2.33-.78,3.18-1.75,6.31-2.59,9.47-.4,1.52-.67,3.07-1.08,5h45L438.64,349c-.79-2.44-1.53-4.42-2.07-6.45a5.64,5.64,0,0,0-5.49-4.39,94.41,94.41,0,0,0-10.64,0c-2.65.11-3.57,1.55-3.11,4.23.41,2.42.8,4.84,1.25,7.53-2.79,0-5.26-.13-7.69.07a3.08,3.08,0,0,0-2.3,1.51c-1.72,6-3.21,12.1-4.84,18.14q-6,22.31-12.11,44.6c-1.06,3.9-2.2,7.79-3.16,11.71-.87,3.55.31,4.94,4,5h9.47c3.47,0,5.06-1.12,6.14-4.55q1.32-4.28,2.37-8.63c1.36-5.69,1.32-5.7,7.09-5.7h3.4C419.59,417.36,418.31,422.19,417.22,427.07Zm37.22-33h-8.83c.36-1.5.69-2.9,1.05-4.38h8.9C455.15,391.31,454.8,392.69,454.44,394.1Zm-32.42.12a28.31,28.31,0,0,0-4.7,0c.45-4.57.45-4.57,4.78-4.57h4.59C426.75,393.12,425.54,394.8,422,394.22Zm5.61-26.48a33.92,33.92,0,0,0,4.94,0c.24,3.15-.88,4.47-4,4a39.36,39.36,0,0,0-5.54,0C423.15,368.59,424.55,367.3,427.63,367.74Zm33.76.15c-.36,1.3-.69,2.53-1,3.74h-8.65l.88-3.74ZM155.94,322.62c-1-2.52-2.84-4.09-5.84-4-3.15.11-6.31,0-9.46,0-4,0-5.16,1.55-4,5.32.64,2.09,1.5,4.1,2.39,6.48H119.12c-5.55,0-5.6,0-7.17,5.2-1.23,4.08-2.32,8.21-3.59,12.72h33.29c-1.49,5.3-2.89,10.3-4.52,16.11-1.54-4.13-2.86-7.5-4.06-10.92-.79-2.23-1.91-4.06-4.5-4.3-2.8-.25-5.63-.3-8.44-.53-6.13-.51-8.31,1.84-5.75,7.72,1.7,3.89,2.68,8.09,4.06,12.43H98.26c-1.71,6.33-3.37,12.49-5.11,18.95H205.9a6.91,6.91,0,0,0,6.9-4.68c.51-1.45.78-3,1.26-4.44,1.12-3.36,3.45-6.31,7.44-6.2,3,.08,2.74-1.58,2.37-3.75h-22.5c.69-1.14,1.14-1.95,1.64-2.72,2.51-3.9,5.08-7.76,7.54-11.69,2.23-3.57,1.17-5.56-2.94-5.6-3.35,0-6.7,0-10.05,0a8.9,8.9,0,0,0-8,4.36c-2.22,3.47-4.73,6.77-7.58,10.81,1.37-5,2.6-9.26,3.65-13.53.4-1.65,1.2-2.13,2.84-2.11,7,.08,14,0,21,0,5.85,0,7.9-1.32,9.46-7,1.21-4.37,3.67-7.12,8.18-7.71,2-.26,2.32-1.29,2.17-3.21H202a86.67,86.67,0,0,0,4.46-8c1.22-2.82.45-3.73-2.56-3.74-4.14,0-8.28,0-12.42,0a6.9,6.9,0,0,0-6.29,3.44,79.9,79.9,0,0,1-5.37,7.22,3,3,0,0,1-2,1.09c-6.3.08-12.6,0-19.1,0C157.75,327.7,157,325.1,155.94,322.62Zm4.39,25.78h7.16c-1.73,6.52-3.4,12.94-5.19,19.33-.14.49-1.17,1-1.82,1-1.76.15-3.54.05-5.63.05C156.75,361.74,158.54,355.08,160.33,348.4ZM110.55,393c-4.32,0-5.6,1.54-6.61,5.13-3,10.85-5.79,21.77-8.66,32.67-1.23,4.65-2.53,9.28-3.7,13.95-1,3.77.22,5.62,3.6,5.62,27.31,0,54.62.1,81.92-.07,4.3,0,6.76-.92,8.05-5.87,4-15.37,8.24-30.68,12.31-46,1.12-4.22.07-5.39-4.39-5.39H152.25Q131.4,393,110.55,393ZM167,434.14H115.73l.84-4.26h51.29Zm5.27-20.61H121.39c.41-4.45.41-4.45,4.75-4.45h47.11Zm192.47-8.07c-2.35,8.63-4.73,17.26-7,25.91-.39,1.46-.76,2.35-2.6,2.38-6.46.13-6.45.21-8,6.3-.55,2.15-1.19,4.27-1.71,6.42-.29,1.22-.43,2.48-.67,3.91h4q56.61,0,113.22,0c2.54,0,5.64.66,7.44-.54,1.56-1,1.71-4.26,2.34-6.56.82-3,1.49-6.12,2.35-9.64H377c1.57-5.75,3-11,4.46-16.31,2.94-10.76,5.93-21.51,8.79-32.3,1-3.6,2.91-5.74,6.78-6.07,1.88-.16,2.92-1.34,2.56-3.64-10.76,0-21.48,0-32.21.07a2.46,2.46,0,0,0-1.82,1.41c-1.76,6.28-3.38,12.61-5.13,19.26h6.88C366.33,399.54,365.53,402.5,364.72,405.46ZM405.53,350H372.66c-1.52,5.83-3,11.61-4.64,17.76,6.5,0,12.48,0,18.46,0,5.15,0,7.24-1.28,8.64-6.28,1.51-5.36,4.39-8.7,10.55-8.5C405.61,351.86,405.57,351,405.53,350Z" transform="translate(-77.92 -308.11)"/></svg>