<svg id="レイヤー_2" data-name="レイヤー 2" xmlns="http://www.w3.org/2000/svg" viewBox="0 0 65.74 125.68"><path d="M328.42,441.53c3,3,7.09,4.51,12.24,4.51q6.43,0,12.25-5.8t5.8-19.34a23.69,23.69,0,0,0-7.09-17.4q-5.17-5.14-15.47-4.51V388q10.31-.63,15.47-5.8t5.16-15.47q0-12.88-5.81-18.69a14,14,0,0,0-19.33,0q-6.45,6.45-7.09,19.34H310.37q.63-16.76,11-27.07,7.73-7.74,20-7.74,12.88,0,20.62,7.74,9,9,9,23.84,0,13.54-7.09,20.63c-4.31,4.3-8.38,7.09-12.25,8.38q8.37,2.58,12.89,7.09a29.86,29.86,0,0,1,9,21.91q0,16.77-10.31,27.07-9,9-22.56,9-14.84,0-23.2-8.38-9.68-9.68-9.67-29h14.83Q322,435.09,328.42,441.53Z" transform="translate(-307.79 -332.6)" fill="#231815"/></svg>