<svg id="レイヤー_2" data-name="レイヤー 2" xmlns="http://www.w3.org/2000/svg" viewBox="0 0 64.45 125.68"><path d="M353.55,347.43a8.73,8.73,0,0,0-6.44-2.58,12.36,12.36,0,0,0-9,3.87q-11,11-13.53,43.18,9-14.82,21.91-14.83,9.68,0,17.41,7.74,10.29,10.32,10.31,31.58,0,23.21-11,34.16-7.74,7.74-20,7.74-11,0-20-9-13.53-13.53-13.54-52.21,0-38,18.7-56.71a26.21,26.21,0,0,1,19.33-7.74q9.67,0,15.47,5.8,9,9,9.67,23.21H358.06Q358.06,351.94,353.55,347.43Zm-20,45.76q-7.72,7.72-7.73,20.62,0,20,9,29a12.38,12.38,0,0,0,9,3.86q5.16,0,9.67-4.51,5.81-5.81,5.8-25.78,0-17.4-6.44-23.85a12.4,12.4,0,0,0-9-3.86A14.22,14.22,0,0,0,333.57,393.19Z" transform="translate(-309.72 -332.6)" fill="#231815"/></svg>