<svg id="レイヤー_2" data-name="レイヤー 2" xmlns="http://www.w3.org/2000/svg" viewBox="0 0 67.03 125.68"><path d="M364.51,400.28q10.31,10.32,10.31,21.91,0,17.4-10.31,27.72-8.38,8.38-23.2,8.38t-23.21-8.38q-10.32-10.31-10.31-27.72,0-11.6,10.31-21.91a26.19,26.19,0,0,1,10.32-6.45,22.94,22.94,0,0,1-8.38-5.15,29.06,29.06,0,0,1-9-21.27v-.65q0-16.1,9.67-25.78a29.57,29.57,0,0,1,41.25,0q9.68,9.67,9.67,25.78v.65a29.13,29.13,0,0,1-9,21.27,23.28,23.28,0,0,1-8.38,5.15A26.29,26.29,0,0,1,364.51,400.28Zm-35.45,4.51q-6.45,6.45-6.44,17.4,0,12.9,6.44,19.34a17.13,17.13,0,0,0,24.49,0Q360,435.1,360,422.19q0-10.95-6.45-17.4a17.11,17.11,0,0,0-24.49,0Zm1.29-56.07q-5.18,5.16-5.16,18v.65q0,11.59,5.16,16.75a15.54,15.54,0,0,0,21.91,0q5.16-5.15,5.16-16.75v-.65q0-12.88-5.16-18a15.54,15.54,0,0,0-21.91,0Z" transform="translate(-307.79 -332.6)" fill="#231815"/></svg>