<svg id="レイヤー_2" data-name="レイヤー 2" xmlns="http://www.w3.org/2000/svg" viewBox="0 0 64.45 125.68"><path d="M373.53,393.83q0,39.33-17.4,56.72a26.23,26.23,0,0,1-19.34,7.74q-9.66,0-15.46-5.81-10.32-10.29-11-23.2h14.82a19.31,19.31,0,0,0,5.8,14.18,9.58,9.58,0,0,0,7.09,2.58,11.72,11.72,0,0,0,8.38-3.87q9.68-9.66,12.25-40.6-7.11,14.83-21.92,14.82-9.66,0-17.4-7.73-10.32-10.31-10.31-34.16,0-21.92,11.6-33.52Q329,332.61,340,332.6a25.47,25.47,0,0,1,18.69,7.74Q373.53,355.18,373.53,393.83ZM339.37,344.2q-3.87,0-8.38,4.52-7.1,7.09-7.09,25.78,0,20,6.45,26.42a12.35,12.35,0,0,0,9,3.87,14.22,14.22,0,0,0,10.32-4.51q7.72-7.74,7.73-23.21,0-20.61-8.38-29A13.12,13.12,0,0,0,339.37,344.2Z" transform="translate(-309.08 -332.6)" fill="#231815"/></svg>